<?xml version="1.0" encoding="UTF-8" standalone="no"?>
<!DOCTYPE svg PUBLIC "-//W3C//DTD SVG 1.1//EN"
"http://www.w3.org/Graphics/SVG/1.1/DTD/svg11.dtd">


<!-- Page 1 -->
<svg x="0" y="0" width="175" height="110" viewBox="0 0 175 110" version="1.1" xmlns="http://www.w3.org/2000/svg" xmlns:xlink="http://www.w3.org/1999/xlink"
style="display: block;margin-left: auto;margin-right: auto;">
<defs>
<clipPath id="c0_1"><path d="M0,109.5L0,0.5l175.5,0l0,109Z" /></clipPath>

<style type="text/css"><![CDATA[

.g1_1{
fill: #FFFFFF;
}
.g2_1{
fill: none;
stroke: #000000;
stroke-width: 0.75694436;
stroke-linecap: butt;
stroke-linejoin: round;
}
.g3_1{
fill: none;
stroke: #000000;
stroke-width: 1.0006219;
stroke-linecap: butt;
stroke-linejoin: round;
}
.g4_1{
}
.g5_1{
fill: none;
stroke: #000000;
stroke-width: 0.7574152;
stroke-linecap: butt;
stroke-linejoin: round;
}

.s1_1{
font-size: 15.14px;
font-family: "Helvetica Neue",Helvetica,Arial,sans-serif;
fill: #000000;
}

]]></style>

</defs>
<path d="M0,0
L0,110
L175,110
L175,0 Z " 
fill="#FFFFFF" stroke="none" />
<g clip-path="url(#c0_1)">
<path fill-rule="evenodd" d="M0,0.5l175.5,0l0,109L0,109.5Z" class="g1_1" />
</g>
<path d="M12.2,9.5l16.7,10l-16.7,10Z" class="g2_1" />
<path d="M28.9,19.5L49.2,19.3" class="g3_1" />
<path fill-rule="evenodd" d="M43.2,23.9l9,-4.7L43.1,14.8Z" class="g4_1" />
<path d="M50.7,62.5l57.6,0l0,43.4l-57.6,0Z" class="g5_1" />
<text 
x="62" 
y="90" 
dx="0,0,0,0,0" 
class="s1_1"
>Delay</text>

<path d="M50.7,84.2L44.5,83.7L38.6,82.5l-5.5,-2l-5,-2.7L23.9,74.7L20.8,71.3L18.7,67.6L17.9,63.8l0.8,-3.9l2.2,-3.7l3.3,-3.4l4.4,-3.1l5.2,-2.6l5.8,-2l6.2,-1.3l3.4,-0.2" class="g3_1" />
<path fill-rule="evenodd" d="M43.5,48.5l8.7,-5.2L42.8,39.5Z" class="g4_1" />
<path d="M52.2,8.5l56.7,0l0,44.3l-56.7,0Z" class="g5_1" />
<text 
x="68" 
y="36" 
dx="0,0,0" 
class="s1_1"
>Add</text>

<path d="M108.9,30.6l41.9,0.6" class="g3_1" />
<path fill-rule="evenodd" d="M144.8,26.6l9,4.6l-9.1,4.4Z" class="g4_1" />
<path d="M108.9,30.6l0.1,0l0.1,0l0.1,0l0.1,0l0.1,0l0.1,0l0.1,0.1l0.1,0l0.1,0l0.1,0l0.1,0l0.1,0l0.1,0l0.1,0l0.1,0l0.1,0l0.1,0l0.1,0l0.1,0l0.1,0l0.1,0l0.1,0.1l0.1,0l0.1,0l0.1,0l0.1,0l0.1,0l0.1,0l0.1,0l0.1,0l0.1,0.1l0.1,0l0.1,0l0.1,0l0.1,0l0.1,0l0.1,0.1l0.1,0l0.1,0l0.1,0l0.1,0l0.1,0l0.1,0.1l0.1,0l0.1,0l0.1,0l0.1,0l0,0.1l0.1,0l0.1,0l0.1,0l0.1,0l0.1,0.1l0.1,0l0.1,0l0.1,0l0.1,0.1l0.1,0l0.1,0l0.1,0l0.1,0.1l0.1,0l0.1,0l0.1,0l0.1,0.1l0.1,0l0.1,0l0.1,0.1l0.1,0l0.1,0l0.1,0.1l0.1,0l0.1,0l0.1,0.1l0.1,0l0.1,0l0.1,0l0,0.1l0.1,0l0.1,0l0.1,0l0,0.1l0.1,0l0.1,0l0.1,0.1l0.1,0l0.1,0l0.1,0.1l0.1,0l0.1,0.1l0.1,0l0.1,0l0,0.1l0.1,0l0.1,0l0.1,0l0,0.1l0.1,0l0.1,0l0.1,0.1l0.1,0l0.1,0.1l0.1,0l0.1,0.1l0.1,0l0.1,0l0,0.1l0.1,0l0.1,0l0.1,0.1l0.1,0.1l0.1,0l0.1,0l0,0.1l0.1,0l0.1,0l0.1,0.1l0.1,0l0.1,0.1l0.1,0.1l0.1,0l0.1,0l0,0.1l0.1,0l0.1,0.1l0.1,0l0.1,0.1l0.1,0l0.1,0l0,0.1l0.1,0l0.1,0.1l0.1,0.1l0.1,0l0.1,0l0,0.1l0.1,0l0.1,0.1l0.1,0l0.1,0.1l0.1,0l0,0.1l0.1,0l0.1,0.1l0.1,0.1l0.1,0l0.1,0l0,0.1l0.1,0l0.1,0.1l0.1,0.1l0.1,0l0,0.1l0.1,0l0.1,0.1l0.1,0l0.1,0.1l0.1,0l0,0.1l0.1,0l0.1,0.1l0.1,0.1l0.1,0l0,0.1l0.1,0l0.1,0.1l0.1,0.1l0.1,0l0,0.1l0.1,0l0.1,0.1l0.1,0l0,0.1l0.1,0l0.1,0.1l0.1,0.1l0.1,0l0,0.1l0.1,0l0,0.1l0.1,0l0.1,0.1l0.1,0.1l0.1,0l0,0.1l0.1,0l0.1,0.1l0,0.1l0.1,0l0.1,0.1l0.1,0.1l0.1,0l0,0.1l0.1,0l0.1,0.1l0.1,0.1l0.1,0.1l0.1,0.1l0.1,0.1l0.1,0l0,0.1l0.1,0l0,0.1l0.1,0.1l0.1,0l0,0.1l0.1,0l0.1,0.1l0.1,0.1l0,0.1l0.1,0l0.1,0.1l0.1,0.1l0.1,0.1l0.1,0.1l0.1,0.1l0.1,0.1l0.1,0.1l0.1,0.1l0.1,0.1l0,0.1l0.1,0l0.1,0.1l0.1,0.1l0,0.1l0.1,0l0,0.1l0.1,0.1l0.1,0l0,0.1l0.1,0l0,0.1l0.1,0.1l0.1,0.1l0.1,0l0,0.1l0.1,0.1l0.1,0.1l0,0.1l0.1,0l0,0.1l0.1,0.1l0.1,0.1l0.1,0l0,0.1l0.1,0.1l0.1,0.1l0,0.1l0.1,0l0,0.1l0.1,0.1l0.1,0.1l0,0.1l0.1,0l0,0.1l0.1,0.1l0.1,0.1l0,0.1l0.1,0l0,0.1l0.1,0.1l0.1,0.1l0,0.1l0.1,0l0,0.1l0.1,0.1l0.1,0.1l0,0.1l0.1,0l0,0.1l0.1,0.1l0.1,0.1l0,0.1l0.1,0l0,0.1l0.1,0.1l0,0.1l0.1,0.1l0,0.1l0.1,0l0,0.1l0.1,0.1l0.1,0.1l0,0.1l0.1,0l0,0.1l0,0.1l0.1,0l0,0.1l0.1,0.1l0,0.1l0.1,0l0,0.1l0,0.1l0.1,0l0,0.1l0.1,0.1l0,0.1l0.1,0.1l0,0.1l0.1,0l0,0.1l0,0.1l0.1,0.1l0.1,0.1l0,0.1l0.1,0.1l0,0.1l0.1,0.1l0,0.1l0.1,0.1l0,0.1l0.1,0.1l0,0.1l0.1,0l0,0.1l0,0.1l0.1,0.1l0,0.1l0.1,0.1l0,0.1l0.1,0.1l0,0.1l0.1,0.1l0,0.1l0,0.1l0.1,0l0,0.1l0,0.1l0.1,0.1l0,0.1l0.1,0.1l0,0.1l0.1,0.1l0,0.1l0,0.1l0.1,0l0,0.1l0,0.1l0,0.1l0.1,0l0,0.1l0,0.1l0.1,0.1l0,0.1l0,0.1l0.1,0.1l0,0.1l0,0.1l0.1,0.1l0,0.1l0.1,0.1l0,0.1l0,0.1l0.1,0.1l0,0.1l0,0.1l0,0.1l0.1,0.1l0,0.1l0,0.1l0.1,0.1l0,0.1l0,0.1l0,0.1l0.1,0.1l0,0.1l0,0.1l0,0.1l0.1,0.1l0,0.1l0,0.1l0,0.1l0.1,0l0,0.1l0,0.1l0,0.1l0,0.1l0.1,0.1l0,0.1l0,0.1l0,0.1l0,0.1l0.1,0.1l0,0.1l0,0.1l0,0.1l0,0.1l0,0.1l0.1,0.1l0,0.1l0,0.1l0,0.1l0,0.1l0,0.1l0.1,0.1l0,0.1l0,0.1l0,0.1l0,0.1l0,0.1l0,0.1l0,0.1l0,0.1l0,0.1l0,0.1l0.1,0l0,0.1l0,0.1l0,0.1l0,0.1l0,0.1l0,0.1l0,0.1l0,0.1l0,0.1l0,0.1l0,0.1l0,0.1l0,0.1l0,0.1l0,0.1l0,0.1l0,0.1l0,0.1l0,0.1l0,0.1l0,0.1l0,0.1l0,0.1l0,0.1l0,0.1l0,0.1l0,0.1l0,0.1l0,0.1l0,0.1l0,0.1l0,0.1l-0.1,0.1l0,0.1l0,0.1l0,0.1l0,0.1l0,0.1l0,0.1l0,0.1l0,0.1L136,60l0,0.1l0,0.1l0,0.1l0,0.1l0,0.1l0,0.1l-0.1,0.1l0,0.1l0,0.1l0,0.1l0,0.1l0,0.1l-0.1,0l0,0.1l0,0.1l0,0.1l0,0.1l0,0.1l-0.1,0.1l0,0.1l0,0.1l0,0.1l-0.1,0.1l0,0.1l0,0.1l0,0.1l0,0.1l-0.1,0l0,0.1l0,0.1l0,0.1l-0.1,0l0,0.1l0,0.1l0,0.1l-0.1,0.1l0,0.1l0,0.1l0,0.1l-0.1,0l0,0.1l0,0.1l0,0.1L135.1,64l0,0.1l0,0.1L135,64.3l0,0.1l0,0.1l-0.1,0l0,0.1l0,0.1l0,0.1l-0.1,0.1l0,0.1l0,0.1l-0.1,0.1l0,0.1l-0.1,0.1l0,0.1l-0.1,0.1l0,0.1l0,0.1l-0.1,0.1l0,0.1l0,0.1l-0.1,0l0,0.1l0,0.1l-0.1,0.1l0,0.1l-0.1,0.1l0,0.1L134,66.8l0,0.1L133.9,67l0,0.1l0,0.1l-0.1,0l0,0.1l-0.1,0.1l0,0.1l-0.1,0.1l0,0.1l0,0.1l-0.1,0l0,0.1l0,0.1l-0.1,0l0,0.1l-0.1,0.1l0,0.1l-0.1,0.1l0,0.1l-0.1,0l0,0.1l0,0.1L133,68.8l-0.1,0.1l0,0.1l0,0.1l-0.1,0l0,0.1l-0.1,0.1l-0.1,0.1l0,0.1l-0.1,0.1l0,0.1l-0.1,0.1l-0.1,0.1l0,0.1l-0.1,0.1l0,0.1l-0.1,0.1L132,70.4l0,0.1l-0.1,0l0,0.1l-0.1,0.1l-0.1,0.1l0,0.1L131.6,71l0,0.1l-0.1,0.1l-0.1,0.1l0,0.1l-0.1,0l0,0.1l-0.1,0.1l-0.1,0.1l0,0.1l-0.1,0l0,0.1L130.9,72l-0.1,0.1l0,0.1l-0.1,0l0,0.1l-0.1,0.1l-0.1,0.1l0,0.1l-0.1,0l0,0.1l-0.1,0.1l-0.1,0.1L130.1,73L130,73.1l0,0.1l-0.1,0l0,0.1l-0.1,0l0,0.1l-0.1,0.1l-0.1,0.1l-0.1,0.1l-0.1,0.1l0,0.1l-0.1,0l0,0.1l-0.1,0l0,0.1l-0.1,0.1l-0.1,0l0,0.1l-0.1,0.1l-0.1,0.1l-0.1,0.1l-0.1,0.1l-0.1,0.1l0,0.1l-0.1,0L128.3,75l-0.1,0.1l0,0.1l-0.1,0l0,0.1l-0.1,0l-0.1,0.1l0,0.1l-0.1,0l-0.1,0.1l-0.1,0.1l0,0.1l-0.1,0l-0.1,0.1L127.3,76l-0.1,0.1l-0.1,0.1L127,76.3l-0.1,0l0,0.1l-0.1,0.1l-0.1,0.1l-0.1,0l0,0.1l-0.1,0l-0.1,0.1l-0.1,0.1L126.2,77l-0.1,0.1L126,77.2l-0.1,0l0,0.1l-0.1,0l-0.1,0.1l0,0.1l-0.1,0l-0.1,0.1l-0.1,0.1l-0.1,0l0,0.1l-0.1,0l-0.1,0.1L125,78l-0.1,0l0,0.1l-0.1,0l-0.1,0.1l-0.1,0.1l-0.1,0l0,0.1l-0.1,0l-0.1,0.1l0,0.1l-0.1,0l-0.1,0.1L124,78.8l-0.1,0l-0.1,0l0,0.1l-0.1,0L123.6,79l-0.1,0.1l-0.1,0l0,0.1l-0.1,0l-0.1,0.1l-0.1,0l0,0.1l-0.1,0l-0.1,0.1l-0.1,0.1l-0.1,0l-0.1,0.1l-0.1,0.1l-0.1,0l-0.1,0.1l-0.1,0L122.1,80L122,80.1l-0.1,0l0,0.1l-0.1,0l-0.1,0l-0.1,0.1l-0.1,0.1l-0.1,0l-0.1,0.1l-0.1,0l-0.1,0.1L121,80.7l-0.1,0l-0.1,0l0,0.1l-0.1,0l-0.1,0.1l-0.1,0l0,0.1l-0.1,0l-0.1,0l-0.1,0.1l-0.1,0L120,81.2l-0.1,0l0,0.1l-0.1,0l-0.1,0l-0.1,0.1l-0.1,0.1l-0.1,0l-0.1,0l0,0.1l-0.1,0l-0.1,0L119,81.7l-0.1,0l-0.1,0.1l-0.1,0l-0.1,0.1l-0.1,0l-0.1,0L118.3,82l-0.1,0l-0.1,0.1l-0.1,0l-0.1,0.1l-0.1,0l-0.1,0l0,0.1l-0.1,0l-0.1,0l-0.1,0.1l-0.1,0l-0.1,0.1l-0.1,0l-0.1,0l-0.1,0.1l-0.1,0l-0.1,0l-0.1,0.1l-0.1,0l-0.1,0l-0.1,0.1l-0.1,0l-0.1,0.1l-0.1,0l-0.1,0L115.8,83l-0.1,0l-0.1,0l-0.1,0l0,0.1l-0.1,0l-0.1,0l-0.1,0l-0.1,0.1l-0.1,0l-0.1,0l-0.1,0l-0.1,0.1l-0.1,0l-0.1,0l-0.1,0.1l-0.1,0l-0.1,0l-0.1,0L114,83.5l-0.1,0l-0.1,0l-0.1,0l-0.1,0.1l-0.1,0l-0.1,0l-0.1,0l-0.1,0l-0.1,0.1l-0.1,0l-0.1,0l-0.1,0l-0.1,0l0,0.1l-0.1,0l-0.1,0l-0.1,0l-0.1,0l-0.1,0l0,0.1l-0.1,0l-0.1,0l-0.1,0l-0.1,0l-0.1,0l-0.1,0L111.5,84l-0.1,0" class="g3_1" />
<path fill-rule="evenodd" d="M117.1,79l-8.8,5.2l9.4,3.9Z" class="g4_1" />
<path d="M153.9,21.3l16.7,10l-16.7,9.9Z" class="g2_1" />


</svg>
